<svg xmlns="http://www.w3.org/2000/svg" xmlns:xlink="http://www.w3.org/1999/xlink" version="1.1" width="1700" height="1300" viewBox="0 0 1700 1300">
<defs>
<style type="text/css">
text {
  font-family: 'Noto Sans CJK KR', 'Noto Sans KR', sans-serif;
}
.title-main { font-size: 18pt; font-weight: 700; }
.subtitle { font-size: 11pt; }
.node-center { font-size: 13pt; font-weight: 700; }
.node-center-sub { font-size: 9pt; font-style: italic; }
.node-primary { font-size: 12pt; font-weight: 600; }
.node-primary-sub { font-size: 9pt; font-style: italic; }
.node-secondary { font-size: 11pt; font-weight: 500; }
.node-secondary-sub { font-size: 9pt; font-style: italic; }
.label-tag { font-size: 9pt; font-weight: 500; }
.legend-title { font-size: 12pt; font-weight: 700; }
.legend-section { font-size: 10pt; font-weight: 700; }
.legend-text { font-size: 9pt; }
</style>
</defs>


<g transform="translate(50, 40)">
<text x="0" y="0" fill="#8C2822" class="title-main">칸트 『도덕형이상학 정초』 1부 첫 단락 — 개념 지도</text>
<text x="0" y="22" fill="#4B4B4B" class="subtitle">본 연구의 14범주 분류 체계 (결정 관계 D1~D9 + 의미적 관계 S1~S5) 적용</text>
</g>

<g>
<ellipse cx="850" cy="580" rx="75" ry="75" fill="#AA2E26" stroke="#8C2822" stroke-width="2"/>
<text x="850" y="577" text-anchor="middle" fill="#FFFFFF" class="node-center">선의지</text>
<text x="850" y="595" text-anchor="middle" fill="#FFFFFF" class="node-center-sub">der gute Wille</text>
</g>

<g>
<rect x="760" y="280" width="180" height="65" rx="10" ry="10" fill="#DD524C" stroke="#AA2E26" stroke-width="2"/>
<text x="850.0" y="310.5" text-anchor="middle" fill="#FFFFFF" class="node-primary">도덕적 가치</text>
<text x="850.0" y="328.5" text-anchor="middle" fill="#FFFFFF" class="node-primary-sub">sittlicher Wert</text>
</g>

<g>
<rect x="1100" y="380" width="180" height="65" rx="10" ry="10" fill="#DD524C" stroke="#AA2E26" stroke-width="2"/>
<text x="1190.0" y="410.5" text-anchor="middle" fill="#FFFFFF" class="node-primary">의무</text>
<text x="1190.0" y="428.5" text-anchor="middle" fill="#FFFFFF" class="node-primary-sub">Pflicht</text>
</g>

<g>
<rect x="1100" y="680" width="180" height="65" rx="10" ry="10" fill="#DD524C" stroke="#AA2E26" stroke-width="2"/>
<text x="1190.0" y="710.5" text-anchor="middle" fill="#FFFFFF" class="node-primary">도덕 법칙</text>
<text x="1190.0" y="728.5" text-anchor="middle" fill="#FFFFFF" class="node-primary-sub">Sittengesetz</text>
</g>

<g>
<rect x="370" y="680" width="180" height="65" rx="10" ry="10" fill="#DD524C" stroke="#AA2E26" stroke-width="2"/>
<text x="460.0" y="710.5" text-anchor="middle" fill="#FFFFFF" class="node-primary">침묵의 부정</text>
<text x="460.0" y="728.5" text-anchor="middle" fill="#FFFFFF" class="node-primary-sub">Negative Positings</text>
</g>

<g>
<rect x="370" y="380" width="180" height="65" rx="10" ry="10" fill="#DD524C" stroke="#AA2E26" stroke-width="2"/>
<text x="460.0" y="410.5" text-anchor="middle" fill="#FFFFFF" class="node-primary">자연 천부</text>
<text x="460.0" y="428.5" text-anchor="middle" fill="#FFFFFF" class="node-primary-sub">Naturgaben</text>
</g>

<g>
<path d="M 850.0,505.0 L 850,345" fill="none" stroke="#8C2822" stroke-width="2" stroke-linecap="round"/>
<path d="M 850,345 L 855.0,356.0 L 845.0,356.0 Z" fill="#8C2822" stroke="#8C2822" stroke-width="1.5" stroke-linejoin="round"/>
<rect x="812.5" y="414.0" width="75" height="22" fill="#8C2822" rx="5"/>
<text x="850.0" y="429.0" text-anchor="middle" fill="#FFFFFF" class="label-tag">D9 규범</text>
</g>

<g>
<path d="M 912.3077483478226,538.253808606959 L 1100,412.5" fill="none" stroke="#8C2822" stroke-width="2" stroke-linecap="round"/>
<path d="M 1100,412.5 L 1093.6,422.8 L 1088.1,414.5 Z" fill="#8C2822" stroke="#8C2822" stroke-width="1.5" stroke-linejoin="round"/>
<rect x="968.7" y="464.4" width="75" height="22" fill="#8C2822" rx="5"/>
<text x="1006.2" y="479.4" text-anchor="middle" fill="#FFFFFF" class="label-tag">D3 정초</text>
</g>

<g>
<path d="M 916.2679674977105,615.1220227737866 L 1100,712.5" fill="none" stroke="#8C2822" stroke-width="2" stroke-linecap="round"/>
<path d="M 1100,712.5 L 1087.9,711.8 L 1092.6,702.9 Z" fill="#8C2822" stroke="#8C2822" stroke-width="1.5" stroke-linejoin="round"/>
<rect x="965.6" y="652.8" width="85" height="22" fill="#8C2822" rx="5"/>
<text x="1008.1" y="667.8" text-anchor="middle" fill="#FFFFFF" class="label-tag">S2 친연성</text>
</g>

<g>
<path d="M 781.3935903542772,610.3011642601942 L 550,712.5" fill="none" stroke="#8C2822" stroke-width="2" stroke-linecap="round"/>
<path d="M 550,712.5 L 558.0,703.5 L 562.1,712.6 Z" fill="#8C2822" stroke="#8C2822" stroke-width="1.5" stroke-linejoin="round"/>
<rect x="628.2" y="650.4" width="75" height="22" fill="#8C2822" rx="5"/>
<text x="665.7" y="665.4" text-anchor="middle" fill="#FFFFFF" class="label-tag">D7 배제</text>
</g>

<g>
<path d="M 784.5155738411603,543.4378620613145 L 550,412.5" fill="none" stroke="#8C2822" stroke-width="2" stroke-linecap="round"/>
<path d="M 550,412.5 L 562.0,413.5 L 557.2,422.2 Z" fill="#8C2822" stroke="#8C2822" stroke-width="1.5" stroke-linejoin="round"/>
<rect x="629.8" y="467.0" width="75" height="22" fill="#8C2822" rx="5"/>
<text x="667.3" y="482.0" text-anchor="middle" fill="#FFFFFF" class="label-tag">D4 조건</text>
</g>

<g>
<rect x="490" y="150" width="170" height="60" rx="10" ry="10" fill="#F6CFD3" stroke="#CF364C" stroke-width="2"/>
<text x="575.0" y="178.0" text-anchor="middle" fill="#92243B" class="node-secondary">무조건적 선</text>
<text x="575.0" y="196.0" text-anchor="middle" fill="#92243B" class="node-secondary-sub">unbedingt Gutes</text>
</g>

<g>
<rect x="760" y="80" width="170" height="60" rx="10" ry="10" fill="#F6CCCB" stroke="#CA3A31" stroke-width="2"/>
<text x="845.0" y="108.0" text-anchor="middle" fill="#8C2822" class="node-secondary">행복</text>
<text x="845.0" y="126.0" text-anchor="middle" fill="#8C2822" class="node-secondary-sub">Glückseligkeit</text>
</g>

<g>
<rect x="1020" y="150" width="170" height="60" rx="10" ry="10" fill="#F6CFD3" stroke="#CF364C" stroke-width="2"/>
<text x="1105.0" y="178.0" text-anchor="middle" fill="#92243B" class="node-secondary">의욕함</text>
<text x="1105.0" y="196.0" text-anchor="middle" fill="#92243B" class="node-secondary-sub">Wollen</text>
</g>

<g>
<path d="M 780,282 L 605,210" fill="none" stroke="#8C2822" stroke-width="2" stroke-linecap="round"/>
<path d="M 605,210 L 617.1,209.6 L 613.3,218.8 Z" fill="#8C2822" stroke="#8C2822" stroke-width="1.5" stroke-linejoin="round"/>
<rect x="650.0" y="235.0" width="85" height="22" fill="#8C2822" rx="5"/>
<text x="692.5" y="250.0" text-anchor="middle" fill="#FFFFFF" class="label-tag">S2 친연성</text>
</g>

<g>
<path d="M 850,280 L 845,140" fill="none" stroke="#8C2822" stroke-width="2" stroke-linecap="round"/>
<path d="M 845,140 L 850.4,150.8 L 840.4,151.2 Z" fill="#8C2822" stroke="#8C2822" stroke-width="1.5" stroke-linejoin="round"/>
<rect x="810.0" y="199.0" width="75" height="22" fill="#8C2822" rx="5"/>
<text x="847.5" y="214.0" text-anchor="middle" fill="#FFFFFF" class="label-tag">S3 대립</text>
</g>

<g>
<path d="M 920,282 L 1085,210" fill="none" stroke="#8C2822" stroke-width="2" stroke-linecap="round"/>
<path d="M 1085,210 L 1076.9,219.0 L 1072.9,209.8 Z" fill="#8C2822" stroke="#8C2822" stroke-width="1.5" stroke-linejoin="round"/>
<rect x="965.0" y="235.0" width="75" height="22" fill="#8C2822" rx="5"/>
<text x="1002.5" y="250.0" text-anchor="middle" fill="#FFFFFF" class="label-tag">D2 구성</text>
</g>

<g>
<rect x="1380" y="250" width="160" height="60" rx="10" ry="10" fill="#F6CFD3" stroke="#CF364C" stroke-width="2"/>
<text x="1460.0" y="278.0" text-anchor="middle" fill="#92243B" class="node-secondary">존경</text>
<text x="1460.0" y="296.0" text-anchor="middle" fill="#92243B" class="node-secondary-sub">Achtung</text>
</g>

<g>
<rect x="1380" y="340" width="160" height="60" rx="10" ry="10" fill="#F6CFD3" stroke="#CF364C" stroke-width="2"/>
<text x="1460.0" y="368.0" text-anchor="middle" fill="#92243B" class="node-secondary">준칙</text>
<text x="1460.0" y="386.0" text-anchor="middle" fill="#92243B" class="node-secondary-sub">Maxime</text>
</g>

<g>
<rect x="1380" y="430" width="160" height="60" rx="10" ry="10" fill="#F6CFD3" stroke="#CF364C" stroke-width="2"/>
<text x="1460.0" y="458.0" text-anchor="middle" fill="#92243B" class="node-secondary">의도</text>
<text x="1460.0" y="476.0" text-anchor="middle" fill="#92243B" class="node-secondary-sub">Absicht</text>
</g>

<g>
<rect x="1380" y="520" width="160" height="60" rx="10" ry="10" fill="#F6CFD3" stroke="#CF364C" stroke-width="2"/>
<text x="1460.0" y="548.0" text-anchor="middle" fill="#92243B" class="node-secondary">경향성</text>
<text x="1460.0" y="566.0" text-anchor="middle" fill="#92243B" class="node-secondary-sub">Neigung</text>
</g>

<g>
<path d="M 1280,395 L 1380,280" fill="none" stroke="#8C2822" stroke-width="2" stroke-linecap="round"/>
<path d="M 1380,280 L 1376.6,291.6 L 1369.0,285.0 Z" fill="#8C2822" stroke="#8C2822" stroke-width="1.5" stroke-linejoin="round"/>
<rect x="1292.5" y="326.5" width="75" height="22" fill="#8C2822" rx="5"/>
<text x="1330.0" y="341.5" text-anchor="middle" fill="#FFFFFF" class="label-tag">D5 매개</text>
</g>

<g>
<path d="M 1280,405 L 1380,370" fill="none" stroke="#8C2822" stroke-width="2" stroke-linecap="round"/>
<path d="M 1380,370 L 1371.3,378.4 L 1368.0,368.9 Z" fill="#8C2822" stroke="#8C2822" stroke-width="1.5" stroke-linejoin="round"/>
<rect x="1292.5" y="376.5" width="75" height="22" fill="#8C2822" rx="5"/>
<text x="1330.0" y="391.5" text-anchor="middle" fill="#FFFFFF" class="label-tag">D3 정초</text>
</g>

<g>
<path d="M 1280,425 L 1380,460" fill="none" stroke="#8C2822" stroke-width="2" stroke-linecap="round"/>
<path d="M 1380,460 L 1368.0,461.1 L 1371.3,451.6 Z" fill="#8C2822" stroke="#8C2822" stroke-width="1.5" stroke-linejoin="round"/>
<rect x="1292.5" y="431.5" width="75" height="22" fill="#8C2822" rx="5"/>
<text x="1330.0" y="446.5" text-anchor="middle" fill="#FFFFFF" class="label-tag">S3 대립</text>
</g>

<g>
<path d="M 1280,440 L 1380,550" fill="none" stroke="#8C2822" stroke-width="2" stroke-linecap="round"/>
<path d="M 1380,550 L 1368.9,545.2 L 1376.3,538.5 Z" fill="#8C2822" stroke="#8C2822" stroke-width="1.5" stroke-linejoin="round"/>
<rect x="1287.5" y="484.0" width="85" height="22" fill="#8C2822" rx="5"/>
<text x="1330.0" y="499.0" text-anchor="middle" fill="#FFFFFF" class="label-tag">D6 변증법</text>
</g>

<g>
<rect x="1380" y="660" width="160" height="60" rx="10" ry="10" fill="#F6CFD3" stroke="#CF364C" stroke-width="2"/>
<text x="1460.0" y="688.0" text-anchor="middle" fill="#92243B" class="node-secondary">행위</text>
<text x="1460.0" y="706.0" text-anchor="middle" fill="#92243B" class="node-secondary-sub">Handlung</text>
</g>

<g>
<rect x="1380" y="750" width="160" height="60" rx="10" ry="10" fill="#F6CFD3" stroke="#CF364C" stroke-width="2"/>
<text x="1460.0" y="778.0" text-anchor="middle" fill="#92243B" class="node-secondary">의지</text>
<text x="1460.0" y="796.0" text-anchor="middle" fill="#92243B" class="node-secondary-sub">Wille</text>
</g>

<g>
<rect x="1380" y="840" width="160" height="60" rx="10" ry="10" fill="#F6CFD3" stroke="#CF364C" stroke-width="2"/>
<text x="1460.0" y="868.0" text-anchor="middle" fill="#92243B" class="node-secondary">필연성</text>
<text x="1460.0" y="886.0" text-anchor="middle" fill="#92243B" class="node-secondary-sub">Notwendigkeit</text>
</g>

<g>
<path d="M 1280,700 L 1380,690" fill="none" stroke="#8C2822" stroke-width="2" stroke-linecap="round"/>
<path d="M 1380,690 L 1369.6,696.1 L 1368.6,686.1 Z" fill="#8C2822" stroke="#8C2822" stroke-width="1.5" stroke-linejoin="round"/>
<rect x="1292.5" y="684.0" width="75" height="22" fill="#8C2822" rx="5"/>
<text x="1330.0" y="699.0" text-anchor="middle" fill="#FFFFFF" class="label-tag">D9 규범</text>
</g>

<g>
<path d="M 1280,715 L 1380,780" fill="none" stroke="#8C2822" stroke-width="2" stroke-linecap="round"/>
<path d="M 1380,780 L 1368.1,778.2 L 1373.5,769.8 Z" fill="#8C2822" stroke="#8C2822" stroke-width="1.5" stroke-linejoin="round"/>
<rect x="1292.5" y="736.5" width="75" height="22" fill="#8C2822" rx="5"/>
<text x="1330.0" y="751.5" text-anchor="middle" fill="#FFFFFF" class="label-tag">D2 구성</text>
</g>

<g>
<path d="M 1280,730 L 1380,870" fill="none" stroke="#8C2822" stroke-width="2" stroke-linecap="round"/>
<path d="M 1380,870 L 1369.5,864.0 L 1377.7,858.1 Z" fill="#8C2822" stroke="#8C2822" stroke-width="1.5" stroke-linejoin="round"/>
<rect x="1292.5" y="789.0" width="75" height="22" fill="#8C2822" rx="5"/>
<text x="1330.0" y="804.0" text-anchor="middle" fill="#FFFFFF" class="label-tag">D4 조건</text>
</g>

<g>
<rect x="150" y="280" width="160" height="60" rx="10" ry="10" fill="#F6CFD3" stroke="#CF364C" stroke-width="2"/>
<text x="230.0" y="308.0" text-anchor="middle" fill="#92243B" class="node-secondary">지성</text>
<text x="230.0" y="326.0" text-anchor="middle" fill="#92243B" class="node-secondary-sub">Verstand</text>
</g>

<g>
<rect x="150" y="380" width="160" height="60" rx="10" ry="10" fill="#F6CFD3" stroke="#CF364C" stroke-width="2"/>
<text x="230.0" y="408.0" text-anchor="middle" fill="#92243B" class="node-secondary">용기</text>
<text x="230.0" y="426.0" text-anchor="middle" fill="#92243B" class="node-secondary-sub">Mut</text>
</g>

<g>
<rect x="150" y="480" width="160" height="60" rx="10" ry="10" fill="#F6CFD3" stroke="#CF364C" stroke-width="2"/>
<text x="230.0" y="508.0" text-anchor="middle" fill="#92243B" class="node-secondary">판단력</text>
<text x="230.0" y="526.0" text-anchor="middle" fill="#92243B" class="node-secondary-sub">Urteilskraft</text>
</g>

<g>
<path d="M 370,400 L 310,310" fill="none" stroke="#8C2822" stroke-width="2" stroke-linecap="round"/>
<path d="M 310,310 L 320.3,316.4 L 311.9,321.9 Z" fill="#8C2822" stroke="#8C2822" stroke-width="1.5" stroke-linejoin="round"/>
<rect x="302.5" y="344.0" width="75" height="22" fill="#8C2822" rx="5"/>
<text x="340.0" y="359.0" text-anchor="middle" fill="#FFFFFF" class="label-tag">D2 포함</text>
</g>

<g>
<path d="M 370,415 L 310,410" fill="none" stroke="#8C2822" stroke-width="2" stroke-linecap="round"/>
<path d="M 310,410 L 321.4,405.9 L 320.5,415.9 Z" fill="#8C2822" stroke="#8C2822" stroke-width="1.5" stroke-linejoin="round"/>
<rect x="302.5" y="401.5" width="75" height="22" fill="#8C2822" rx="5"/>
<text x="340.0" y="416.5" text-anchor="middle" fill="#FFFFFF" class="label-tag">D2 포함</text>
</g>

<g>
<path d="M 370,430 L 310,510" fill="none" stroke="#8C2822" stroke-width="2" stroke-linecap="round"/>
<path d="M 310,510 L 312.6,498.2 L 320.6,504.2 Z" fill="#8C2822" stroke="#8C2822" stroke-width="1.5" stroke-linejoin="round"/>
<rect x="302.5" y="459.0" width="75" height="22" fill="#8C2822" rx="5"/>
<text x="340.0" y="474.0" text-anchor="middle" fill="#FFFFFF" class="label-tag">D2 포함</text>
</g>

<g>
<rect x="50" y="870" width="175" height="65" rx="10" ry="10" fill="#F6CCCB" stroke="#CA3A31" stroke-width="2"/>
<text x="137.5" y="900.5" text-anchor="middle" fill="#8C2822" class="node-secondary">행복으로서의 선</text>
<text x="137.5" y="918.5" text-anchor="middle" fill="#8C2822" class="node-secondary-sub">(아리스토텔레스적)</text>
</g>

<g>
<rect x="252" y="870" width="175" height="65" rx="10" ry="10" fill="#F6CCCB" stroke="#CA3A31" stroke-width="2"/>
<text x="339.5" y="900.5" text-anchor="middle" fill="#8C2822" class="node-secondary">효용으로서의 선</text>
<text x="339.5" y="918.5" text-anchor="middle" fill="#8C2822" class="node-secondary-sub">(공리주의적)</text>
</g>

<g>
<rect x="454" y="870" width="175" height="65" rx="10" ry="10" fill="#F6CCCB" stroke="#CA3A31" stroke-width="2"/>
<text x="541.5" y="900.5" text-anchor="middle" fill="#8C2822" class="node-secondary">신의 명령</text>
<text x="541.5" y="918.5" text-anchor="middle" fill="#8C2822" class="node-secondary-sub">(신학적 자발주의)</text>
</g>

<g>
<rect x="50" y="1015" width="175" height="65" rx="10" ry="10" fill="#F6CCCB" stroke="#CA3A31" stroke-width="2"/>
<text x="137.5" y="1045.5" text-anchor="middle" fill="#8C2822" class="node-secondary">도덕 감정</text>
<text x="137.5" y="1063.5" text-anchor="middle" fill="#8C2822" class="node-secondary-sub">(Hume적)</text>
</g>

<g>
<rect x="252" y="1015" width="175" height="65" rx="10" ry="10" fill="#F6CCCB" stroke="#CA3A31" stroke-width="2"/>
<text x="339.5" y="1045.5" text-anchor="middle" fill="#8C2822" class="node-secondary">사회적 관습</text>
<text x="339.5" y="1063.5" text-anchor="middle" fill="#8C2822" class="node-secondary-sub">(사회학적)</text>
</g>

<g>
<rect x="454" y="1015" width="175" height="65" rx="10" ry="10" fill="#F6CCCB" stroke="#CA3A31" stroke-width="2"/>
<text x="541.5" y="1045.5" text-anchor="middle" fill="#8C2822" class="node-secondary">비합리적 선택</text>
<text x="541.5" y="1063.5" text-anchor="middle" fill="#8C2822" class="node-secondary-sub">(실존주의적)</text>
</g>

<g>
<path d="M 400,745 L 137,870" fill="none" stroke="#8C2822" stroke-width="2" stroke-linecap="round"/>
<path d="M 137,870 L 144.8,860.8 L 149.1,869.8 Z" fill="#8C2822" stroke="#8C2822" stroke-width="1.5" stroke-linejoin="round"/>
<rect x="217.8" y="802.8" width="75" height="22" fill="#8C2822" rx="5"/>
<text x="255.3" y="817.8" text-anchor="middle" fill="#FFFFFF" class="label-tag">N1 배제</text>
</g>

<g>
<path d="M 440,745 L 340,870" fill="none" stroke="#8C2822" stroke-width="2" stroke-linecap="round"/>
<path d="M 340,870 L 343.0,858.3 L 350.8,864.5 Z" fill="#8C2822" stroke="#8C2822" stroke-width="1.5" stroke-linejoin="round"/>
<rect x="347.5" y="802.8" width="75" height="22" fill="#8C2822" rx="5"/>
<text x="385.0" y="817.8" text-anchor="middle" fill="#FFFFFF" class="label-tag">N2 배제</text>
</g>

<g>
<path d="M 480,745 L 542,870" fill="none" stroke="#8C2822" stroke-width="2" stroke-linecap="round"/>
<path d="M 542,870 L 532.6,862.4 L 541.6,857.9 Z" fill="#8C2822" stroke="#8C2822" stroke-width="1.5" stroke-linejoin="round"/>
<rect x="476.6" y="802.8" width="75" height="22" fill="#8C2822" rx="5"/>
<text x="514.1" y="817.8" text-anchor="middle" fill="#FFFFFF" class="label-tag">N3 배제</text>
</g>

<g>
<path d="M 137,935 L 137,1015" fill="none" stroke="#8C2822" stroke-width="2" stroke-linecap="round"/>
<path d="M 137,1015 L 132.0,1004.0 L 142.0,1004.0 Z" fill="#8C2822" stroke="#8C2822" stroke-width="1.5" stroke-linejoin="round"/>
<rect x="99.5" y="964.0" width="75" height="22" fill="#8C2822" rx="5"/>
<text x="137.0" y="979.0" text-anchor="middle" fill="#FFFFFF" class="label-tag">N4 배제</text>
</g>

<g>
<path d="M 340,935 L 340,1015" fill="none" stroke="#8C2822" stroke-width="2" stroke-linecap="round"/>
<path d="M 340,1015 L 335.0,1004.0 L 345.0,1004.0 Z" fill="#8C2822" stroke="#8C2822" stroke-width="1.5" stroke-linejoin="round"/>
<rect x="302.5" y="964.0" width="75" height="22" fill="#8C2822" rx="5"/>
<text x="340.0" y="979.0" text-anchor="middle" fill="#FFFFFF" class="label-tag">N5 배제</text>
</g>

<g>
<path d="M 542,935 L 542,1015" fill="none" stroke="#8C2822" stroke-width="2" stroke-linecap="round"/>
<path d="M 542,1015 L 537.0,1004.0 L 547.0,1004.0 Z" fill="#8C2822" stroke="#8C2822" stroke-width="1.5" stroke-linejoin="round"/>
<rect x="504.5" y="964.0" width="75" height="22" fill="#8C2822" rx="5"/>
<text x="542.0" y="979.0" text-anchor="middle" fill="#FFFFFF" class="label-tag">N6 배제</text>
</g>

<g transform="translate(960, 990)">
<rect x="0" y="0" width="700" height="220" fill="#FFFFFF" stroke="#AA2E26" stroke-width="2" rx="8"/>
<text x="350" y="30" text-anchor="middle" fill="#8C2822" class="legend-title">범례 — 14범주 분류 체계</text>

<text x="30" y="65" fill="#8C2822" class="legend-section">결정 관계 (D)</text>

<rect x="30" y="80" width="65" height="22" fill="#8C2822" rx="4"/>
<text x="62.5" y="95" text-anchor="middle" fill="#FFFFFF" class="label-tag">D3 정초</text>
<text x="105" y="95" fill="#4B4B4B" class="legend-text">: A가 B의 형이상학적 토대</text>

<rect x="30" y="108" width="65" height="22" fill="#8C2822" rx="4"/>
<text x="62.5" y="123" text-anchor="middle" fill="#FFFFFF" class="label-tag">D9 규범</text>
<text x="105" y="123" fill="#4B4B4B" class="legend-text">: A가 B의 당위를 결정</text>

<rect x="30" y="136" width="65" height="22" fill="#8C2822" rx="4"/>
<text x="62.5" y="151" text-anchor="middle" fill="#FFFFFF" class="label-tag">D7 배제 ⭐</text>
<text x="105" y="151" fill="#4B4B4B" class="legend-text">: 침묵 속의 배제 (가추)</text>

<rect x="30" y="164" width="65" height="22" fill="#8C2822" rx="4"/>
<text x="62.5" y="179" text-anchor="middle" fill="#FFFFFF" class="label-tag">D4 조건</text>
<text x="105" y="179" fill="#4B4B4B" class="legend-text">: A가 B의 가능 조건</text>

<text x="380" y="65" fill="#8C2822" class="legend-section">의미적 관계 (S)</text>

<rect x="380" y="80" width="80" height="22" fill="#8C2822" rx="4"/>
<text x="420" y="95" text-anchor="middle" fill="#FFFFFF" class="label-tag">S2 친연성</text>
<text x="470" y="95" fill="#4B4B4B" class="legend-text">: 주제적 친연성 (cos≥0.70)</text>

<rect x="380" y="108" width="80" height="22" fill="#8C2822" rx="4"/>
<text x="420" y="123" text-anchor="middle" fill="#FFFFFF" class="label-tag">S3 대립</text>
<text x="470" y="123" fill="#4B4B4B" class="legend-text">: 개념적 대립쌍</text>

<text x="380" y="151" fill="#8C2822" class="legend-section">노드 유형</text>
<circle cx="395" cy="172" r="9" fill="#AA2E26"/>
<text x="410" y="177" fill="#4B4B4B" class="legend-text">중심 개념</text>

<rect x="490" y="164" width="18" height="18" fill="#DD524C" rx="2"/>
<text x="514" y="177" fill="#4B4B4B" class="legend-text">1차 범주</text>

<rect x="590" y="164" width="18" height="18" fill="#F6CFD3" stroke="#CF364C" rx="2"/>
<text x="614" y="177" fill="#4B4B4B" class="legend-text">2차 개념</text>

<rect x="380" y="190" width="18" height="18" fill="#F6CCCB" stroke="#CA3A31" rx="2"/>
<text x="404" y="203" fill="#4B4B4B" class="legend-text">D7 배제된 가능성</text>
</g>
</svg>